<svg xmlns="http://www.w3.org/2000/svg" width="41" height="39" fill="none"><path fill="#fff" d="M39.124 14.127 21.827.512a2.638 2.638 0 0 0-3.192 0L11.428 6.04c-.309-1.126-1.235-1.842-2.47-1.842-1.442 0-2.575 1.126-2.575 2.559V9.93L1.03 14.024c-1.132.82-1.338 2.457-.515 3.583.515.614 1.236 1.024 2.06 1.024.514 0 1.132-.205 1.544-.512L20.18 5.835 35.83 18.12c1.132.921 2.78.716 3.603-.41.927-1.126.824-2.763-.309-3.582ZM12.767 26.41c0 1.433 1.133 2.559 2.574 2.559h3.5v-6.04h-6.074v3.48Z"/><path fill="#fff" d="M27.696 16.685c0-1.433-1.132-2.559-2.574-2.559h-3.5v6.04h6.074v-3.481ZM18.945 14.126h-3.5c-1.442 0-2.575 1.126-2.575 2.559v3.48h6.075v-6.039Z"/><path fill="#03B766" d="M7.31 30.3c-.206.101-.412.204-.618.204.103.512.206.921.412 1.433 1.956 5.527 8.134 8.394 13.694 6.449.206-.103.412-.205.618-.205a7.504 7.504 0 0 0-.412-1.433c-1.956-5.528-8.031-8.394-13.694-6.449ZM36.963 22.11c-8.443 0-15.341 6.859-15.341 15.252v.614l9.678-8.29-9.164 8.7c.515.102 1.03.102 1.648.102 8.443 0 15.34-6.858 15.34-15.252v-.92c-.72-.103-1.44-.206-2.161-.206Z"/><path fill="#fff" d="M27.696 22.93h-6.074v6.039a14.365 14.365 0 0 1 6.074-6.04Z"/></svg>